<svg version="1.1" xmlns="http://www.w3.org/2000/svg" xmlns:xlink="http://www.w3.org/1999/xlink" x="0px" y="0px"
	 width="16px" height="12px" viewBox="0 0 16 12" enable-background="new 0 0 16 12" xml:space="preserve">
<path fill-rule="evenodd" clip-rule="evenodd" fill="#FFFFFF" d="M1.5,0h13C15.328,0,16,0.672,16,1.5v9c0,0.828-0.672,1.5-1.5,1.5
	h-13C0.672,12,0,11.328,0,10.5v-9C0,0.672,0.672,0,1.5,0z M8.5,7.662V8h-1V7.662L1.001,1.638l0.637-0.636L8,6.9l6.362-5.898
	l0.637,0.636L8.5,7.662z M5.495,6.871l-4.124,4.124l-0.366-0.366l4.124-4.124L5.495,6.871z M14.995,10.629l-0.366,0.366
	l-4.124-4.124l0.366-0.366L14.995,10.629z"/>
</svg>
